<svg width="100" height="100" viewBox="0 0 100 100" xmlns="http://www.w3.org/2000/svg">
  <g fill="#B8860B">
    <!-- Main stem -->
    <path d="M50 10 L50 90" stroke="#B8860B" stroke-width="3" fill="none" />
    
    <!-- Left leaves -->
    <path d="M50 30 C30 20, 20 30, 15 45" stroke="#B8860B" stroke-width="2" fill="none" />
    <path d="M50 40 C35 35, 25 45, 20 60" stroke="#B8860B" stroke-width="2" fill="none" />
    <path d="M50 50 C40 50, 30 60, 25 75" stroke="#B8860B" stroke-width="2" fill="none" />
    
    <!-- Right leaves -->
    <path d="M50 30 C70 20, 80 30, 85 45" stroke="#B8860B" stroke-width="2" fill="none" />
    <path d="M50 40 C65 35, 75 45, 80 60" stroke="#B8860B" stroke-width="2" fill="none" />
    <path d="M50 50 C60 50, 70 60, 75 75" stroke="#B8860B" stroke-width="2" fill="none" />
    
    <!-- Small leaves on left side -->
    <path d="M50 25 C40 20, 35 25, 30 35" stroke="#B8860B" stroke-width="1.5" fill="none" />
    <path d="M50 35 C45 30, 40 35, 35 45" stroke="#B8860B" stroke-width="1.5" fill="none" />
    <path d="M50 45 C45 45, 40 50, 35 60" stroke="#B8860B" stroke-width="1.5" fill="none" />
    
    <!-- Small leaves on right side -->
    <path d="M50 25 C60 20, 65 25, 70 35" stroke="#B8860B" stroke-width="1.5" fill="none" />
    <path d="M50 35 C55 30, 60 35, 65 45" stroke="#B8860B" stroke-width="1.5" fill="none" />
    <path d="M50 45 C55 45, 60 50, 65 60" stroke="#B8860B" stroke-width="1.5" fill="none" />
  </g>
</svg> 